<svg width="118" height="83" xmlns="http://www.w3.org/2000/svg" xmlns:xlink="http://www.w3.org/1999/xlink" xml:space="preserve" overflow="hidden"><defs><clipPath id="clip0"><rect x="456" y="421" width="118" height="83"/></clipPath><clipPath id="clip1"><rect x="457" y="422" width="117" height="81"/></clipPath><clipPath id="clip2"><rect x="457" y="422" width="117" height="81"/></clipPath><clipPath id="clip3"><rect x="457" y="422" width="117" height="81"/></clipPath></defs><g clip-path="url(#clip0)" transform="translate(-456 -421)"><g clip-path="url(#clip1)"><g clip-path="url(#clip2)"><g clip-path="url(#clip3)"><path d="M35.586 49.383 32.481 50.247C32.751 51.03 32.967 52.434 32.967 54.324L32.967 63.612 36.45 63.612 36.45 53.784C37.098 53.001 37.8 52.623 38.556 52.623 38.934 52.623 39.231 52.704 39.555 52.893L40.5 49.68C39.96 49.437 39.717 49.383 39.204 49.383 38.826 49.383 38.367 49.464 38.07 49.599 37.422 49.923 36.612 50.652 36.099 51.354 36.099 50.571 35.91 49.95 35.586 49.383ZM23.598 44.793 23.22 44.793 23.22 63.585 26.838 63.585 26.838 55.269 31.401 55.269 31.401 52.164 26.838 52.164 26.838 47.844 32.535 47.844 32.751 46.197C29.322 45.954 26.217 45.414 23.598 44.793ZM15.147 66.096 16.821 68.04C18.441 67.392 20.466 65.934 21.006 63.612 21.195 62.856 21.249 62.37 21.249 59.913L21.249 44.82 17.604 44.82 17.604 60.318C17.604 62.343 17.523 63.099 17.253 63.801 16.902 64.584 16.065 65.502 15.147 66.096ZM48.006 56.565C48.006 59.859 47.358 61.263 45.873 61.263 45.198 61.263 44.442 60.885 44.118 60.129 43.848 59.427 43.686 58.239 43.686 56.619 43.686 55.242 43.821 54.27 44.037 53.514 44.307 52.65 44.982 52.11 45.819 52.11 46.44 52.11 46.98 52.38 47.304 52.839 47.79 53.487 48.006 54.702 48.006 56.565ZM50.139 61.965C51.273 60.615 51.786 58.968 51.786 56.592 51.786 54.351 51.327 52.812 50.274 51.516 49.14 50.112 47.682 49.437 45.792 49.437 42.228 49.437 39.852 52.326 39.852 56.7 39.852 61.074 42.201 63.882 45.792 63.882 47.817 63.909 49.14 63.153 50.139 61.965ZM60.021 54.189C60.021 55.458 59.265 56.16 57.915 56.16 56.7 56.16 55.89 55.593 55.89 54.189 55.89 52.893 56.646 52.137 57.942 52.137 59.238 52.137 60.021 52.893 60.021 54.189ZM66.15 51.219 64.719 48.924C63.909 49.68 62.937 50.112 61.992 50.112 61.56 50.112 61.317 50.058 60.372 49.815 59.427 49.545 58.752 49.464 57.996 49.464 54.621 49.464 52.434 51.3 52.434 54.162 52.434 56.214 53.352 57.51 55.269 58.023 54.486 58.212 53.649 58.617 53.271 59.076 53.001 59.4 52.866 59.832 52.866 60.345 52.866 60.777 52.974 61.155 53.136 61.479 53.325 61.776 53.568 62.019 53.892 62.154 54.513 62.397 55.512 62.559 57.051 62.586 57.861 62.586 58.347 62.613 58.509 62.613 59.454 62.667 59.94 62.829 60.318 63.018 60.669 63.234 60.939 63.72 60.939 64.26 60.939 64.8 60.615 65.34 60.102 65.664 59.643 65.988 58.887 66.123 57.915 66.123 56.322 66.123 55.431 65.529 55.431 64.422 55.431 63.936 55.485 63.828 55.593 63.531L52.407 63.531C52.272 63.801 52.11 64.179 52.11 64.935 52.11 65.88 52.461 66.69 53.19 67.392 54.378 68.553 56.322 68.877 58.185 68.877 60.237 68.877 62.235 68.391 63.396 67.095 64.125 66.285 64.449 65.394 64.449 64.233 64.449 62.991 64.098 62.046 63.315 61.263 62.397 60.372 61.344 60.048 59.319 60.021L57.456 59.994C57.105 59.994 56.889 59.859 56.889 59.67 56.889 59.292 57.375 58.968 58.266 58.536 58.536 58.563 58.617 58.563 58.779 58.563 61.587 58.563 63.639 56.835 63.639 54.432 63.639 53.514 63.369 52.812 62.856 52.164 63.288 52.218 63.423 52.245 63.747 52.245 64.665 52.245 65.394 51.948 66.15 51.219ZM22.68 28.458C18.36 29.511 15.417 31.59 15.417 33.966 15.417 35.451 16.551 36.801 18.414 37.854 17.847 36.963 17.55 35.991 17.55 35.019 17.577 32.562 19.494 30.267 22.68 28.458ZM68.256 37.773C68.256 36.207 67.284 34.776 65.664 33.588 65.799 34.074 65.907 34.56 65.907 35.046 65.907 39.501 59.67 43.335 50.814 44.928 51.813 45.036 52.839 45.09 53.919 45.09 61.83 45.063 68.256 41.796 68.256 37.773ZM63.153 35.343C63.153 33.696 61.749 32.184 59.346 30.942 59.913 31.617 60.21 32.346 60.21 33.102 60.21 37.071 51.786 40.284 41.364 40.284 30.969 40.284 22.518 37.071 22.518 33.102 22.518 32.589 22.653 32.103 22.923 31.644 21.249 32.751 20.304 34.02 20.304 35.37 20.304 39.663 29.889 43.146 41.715 43.146 53.541 43.146 63.153 39.609 63.153 35.343ZM53.811 35.127C49.437 37.935 35.991 39.015 30.213 35.397 25.677 32.562 27.243 28.053 14.256 18.171 12.555 16.875 14.58 15.498 15.849 16.389 17.118 17.28 15.957 17.496 18.522 20.061 23.706 25.245 23.652 20.574 24.462 22.356 26.19 26.055 29.97 29.781 29.97 29.781 33.777 32.265 36.801 32.805 42.417 28.998 45.981 26.595 44.523 32.832 53.244 28.323 56.43 26.676 56.295 27.783 59.535 23.274 60.885 21.411 63.45 24.705 60.534 25.164 59.373 25.353 57.402 26.622 56.565 28.62 55.35 31.617 55.863 33.831 53.811 35.127ZM29.565 27.513C28.485 27.027 27.351 25.191 26.919 24.462 28.134 23.274 27.648 21.303 26.946 20.223 26.271 19.143 25.434 19.44 24.543 18.441 23.625 17.442 24.894 14.85 26.055 16.848 30.402 24.327 33.264 21.222 36.801 20.763 40.203 20.331 43.227 22.194 44.145 16.929 44.307 16.065 45.144 15.876 45.225 17.28 45.306 18.711 45.846 22.167 47.709 22.599 49.572 23.058 51.084 22.167 51.516 21.681 51.948 21.195 52.191 21.249 52.38 22.491 52.569 23.706 53.055 25.407 55.674 23.517 61.047 19.683 59.508 18.198 61.614 17.199 62.802 16.632 64.692 18.468 61.965 19.845 58.077 21.816 57.672 24.246 55.215 25.785 51.084 28.377 52.353 25.893 45.711 24.948 43.146 24.597 42.336 27.432 40.338 26.622 35.775 24.732 32.562 25.11 29.565 27.513ZM43.956 13.662C44.118 14.796 44.307 14.769 44.712 14.85 45.117 14.958 45.63 14.31 45.63 13.716 45.657 13.095 45.36 12.717 44.766 12.744 44.145 12.771 43.929 13.068 43.956 13.662ZM63.936 15.687C64.422 16.146 65.718 15.849 66.015 15.498 66.798 14.634 66.825 14.121 66.42 13.527 66.015 12.96 65.178 13.041 64.341 13.662 63.504 14.283 63.666 15.444 63.936 15.687ZM63.585 21.411C63.18 21.951 63.153 22.356 63.45 22.653 63.774 22.977 64.422 23.247 64.881 22.896 65.34 22.518 65.34 21.978 64.962 21.519 64.557 21.033 64.017 21.033 63.585 21.411ZM22.599 14.661C23.22 14.85 23.517 15.444 24.03 14.769 24.3 14.445 24.327 13.986 23.976 13.5 23.76 13.203 22.734 12.987 22.302 13.419 21.87 13.851 22.275 14.553 22.599 14.661ZM9.936 14.283C11.07 14.985 11.799 16.038 12.663 15.093 12.96 14.769 13.311 14.202 12.69 13.068 12.231 12.231 10.746 11.907 10.233 12.231 9.693 12.528 9.045 13.743 9.936 14.283ZM20.385 19.656C20.736 20.034 21.357 20.007 21.735 19.791 22.086 19.575 22.032 19.008 21.681 18.522 21.465 18.225 20.817 18.063 20.385 18.522 19.953 18.981 20.142 19.386 20.385 19.656Z" stroke="#EB494B" stroke-width="0.27" stroke-linecap="butt" stroke-linejoin="miter" stroke-miterlimit="4" stroke-opacity="1" fill="#41BF47" fill-rule="nonzero" fill-opacity="1" transform="matrix(1.44444 0 0 1 457 422)"/></g></g></g></g></svg>